<?xml version="1.0" encoding="UTF-8" standalone="no"?>
<!-- Created with Inkscape (http://www.inkscape.org/) -->

<svg
   width="163.16145mm"
   height="10.19389mm"
   viewBox="0 0 163.16145 10.19389"
   version="1.1"
   id="svg1"
   xmlns="http://www.w3.org/2000/svg"
   xmlns:svg="http://www.w3.org/2000/svg">
  <defs
     id="defs1" />
  <g
     id="layer1"
     transform="translate(-3.713978,-4.2293015)">
    <path
       style="font-weight:bold;font-size:19.7556px;font-family:BankGothic;-inkscape-font-specification:'BankGothic Bold';letter-spacing:0px;word-spacing:-3.38931px;fill:#ffffff;stroke-width:0.264583"
       d="M 20.466727,4.2293015 16.535362,14.423191 H 14.935159 L 12.129864,7.3704419 9.2850572,14.423191 H 7.6453424 L 3.713978,4.2293015 H 6.1636724 L 8.751656,11.064739 11.458173,4.2293015 h 1.659471 l 2.765784,6.8354375 2.46945,-6.8354375 z M 35.24393,14.423191 H 32.576924 L 31.352077,12.190808 H 24.891996 L 23.70666,14.423191 H 21.335988 L 27.104623,4.2293015 h 2.29165 z M 30.364297,10.353537 28.171425,6.2048615 25.899531,10.353537 Z M 48.480167,4.2293015 42.869576,14.423191 H 41.229862 L 35.342693,4.2293015 H 38.04921 L 42.17813,11.59814 46.109495,4.2293015 Z M 61.775682,14.423191 H 51.245947 V 4.2293015 h 10.430957 v 1.7384928 h -8.060285 v 2.271894 h 4.701833 v 1.7384928 h -4.701833 v 2.5287169 h 8.159063 z M 77.185034,8.4767555 q 0,1.9755595 -2.291649,1.9755595 H 68.49257 v 3.970876 H 66.16141 V 4.2293015 h 8.731975 q 2.291649,0 2.291649,1.97556 z m -2.291649,-0.592668 v -1.086558 q 0,-0.5136456 -0.296334,-0.6716904 Q 74.379739,5.9875499 73.826582,5.9875499 H 68.49257 v 2.7065172 h 5.334012 q 0.553157,0 0.770469,-0.1382892 0.296334,-0.1580448 0.296334,-0.6716904 z m 18.115888,6.5391035 h -2.390428 v -4.385743 h -7.40835 v 4.385743 H 80.839823 V 4.2293015 h 2.370672 v 3.95112 h 7.40835 v -3.95112 h 2.390428 z m 17.562707,-2.410183 q 0,1.422403 -0.55316,1.916293 -0.5334,0.49389 -1.97556,0.49389 h -7.50713 q -1.442158,0 -1.995314,-0.49389 -0.533402,-0.49389 -0.533402,-1.916293 V 6.6394847 q 0,-1.4224032 0.533402,-1.9162932 0.553156,-0.49389 1.995314,-0.49389 h 7.50713 q 1.44216,0 1.97556,0.49389 0.55316,0.49389 0.55316,1.9162932 z m -2.37068,0.49389 V 6.0468167 h -7.82321 v 6.4600813 z m 17.89859,1.916293 H 115.57015 V 4.2293015 h 10.43096 v 1.7384928 h -8.06028 v 2.271894 h 4.70183 v 1.7384928 h -4.70183 v 2.5287169 h 8.15906 z m 16.35762,0 h -1.61996 l -7.48737,-6.3020363 q -0.47414,-0.395112 -0.8495,-0.8297352 0.0988,0.98778 0.0988,1.5606924 v 5.5710791 h -2.1336 V 4.2293015 h 1.61996 l 7.17128,6.0057025 q 0.77047,0.651935 1.16558,1.106313 -0.0988,-1.4224027 -0.0988,-1.7582479 V 4.2293015 h 2.13361 z m 7.56639,0 h -2.37068 V 4.2293015 h 2.37068 z m 16.85154,0 h -3.22016 l -3.73381,-3.95112 -3.43748,3.95112 h -2.80529 l 4.84012,-5.2352339 -4.91915,-4.9586556 h 3.14115 l 3.25967,3.45723 3.10163,-3.45723 h 2.72627 l -4.44501,4.6820772 z"
       id="text1"
       aria-label="WAVEPHOENIX" />
  </g>
</svg>
